# xmcd
# 
# Track frame offsets:
#     150
#     19180
#     33649
#     45679
#     58563
#     84582
#     99533
#     133373
#     159742
# 
# Disc length: 2444
# 
# Revision: 4
# Processed by: cddbd v1.5.2PL0 Copyright (c) Steve Scherf et al.
# Submitted via: fre:ac v1.0.17
# 
DISCID=79098a09
DTITLE=AC/DC - Dirty Deeds Done Dirt Cheap
DYEAR=1976
DGENRE=Hard Rock
TTITLE0=Dirty deeds done dirt cheap
TTITLE1=Love at first feel
TTITLE2=Big balls
TTITLE3=Rocker
TTITLE4=Problem child
TTITLE5=There's gonna be some rockin'
TTITLE6=Ain't no fun (waiting 'round to be a millionaire)
TTITLE7=Ride on
TTITLE8=Squealer
EXTD=
EXTT0=
EXTT1=
EXTT2=
EXTT3=
EXTT4=
EXTT5=
EXTT6=
EXTT7=
EXTT8=
PLAYORDER=
